<svg xmlns="http://www.w3.org/2000/svg" viewBox="0 0 128 128">
  <rect width="128" height="128" rx="18" fill="#0b0d10"/>
  <circle cx="64" cy="64" r="46" fill="none" stroke="#1d232b" stroke-width="5"/>
  <g fill="#39424e">
    <path d="M64 64 L64 22 A42 42 0 0 1 93 36 Z"/>
    <path d="M64 64 L99 47 A42 42 0 0 1 96 88 Z"/>
    <path d="M64 64 L84 100 A42 42 0 0 1 44 100 Z"/>
    <path d="M64 64 L32 89 A42 42 0 0 1 29 48 Z"/>
    <path d="M64 64 L36 33 A42 42 0 0 1 64 22 Z" fill="#2c343f"/>
  </g>
  <circle cx="64" cy="64" r="11" fill="#e63946"/>
  <path d="M14 110 L46 110 L54 98 L62 116 L70 104 L76 110 L114 110"
        fill="none" stroke="#e63946" stroke-width="5" stroke-linecap="round" stroke-linejoin="round"/>
</svg>
